<svg width="580" height="333" viewBox="0 0 580 333" fill="none" xmlns="http://www.w3.org/2000/svg">
<rect width="580" height="332.677" fill="#0A0F2C"/>
<path d="M121.65 198.034L118.153 191.966C117.769 191.3 118.25 190.467 119.019 190.467H136.057C136.826 190.467 137.308 189.634 136.923 188.968L121.071 161.46C120.893 161.15 120.893 160.77 121.071 160.461L135.371 135.646C135.756 134.979 136.719 134.979 137.104 135.646L151.404 160.461C151.582 160.77 151.582 161.15 151.404 161.46L147.953 167.449C147.568 168.117 146.605 168.117 146.22 167.449L137.104 151.631C136.719 150.963 135.756 150.963 135.371 151.631L130.282 160.461C130.104 160.77 130.104 161.15 130.282 161.46L150.784 197.036C151.169 197.702 150.688 198.535 149.918 198.535H122.516C122.159 198.535 121.828 198.344 121.65 198.034Z" fill="black"/>
<path d="M121.65 198.034L118.153 191.966C117.769 191.3 118.25 190.467 119.019 190.467H136.057C136.826 190.467 137.308 189.634 136.923 188.968L121.071 161.46C120.893 161.15 120.893 160.77 121.071 160.461L135.371 135.646C135.756 134.979 136.719 134.979 137.104 135.646L151.404 160.461C151.582 160.77 151.582 161.15 151.404 161.46L147.953 167.449C147.568 168.117 146.605 168.117 146.22 167.449L137.104 151.631C136.719 150.963 135.756 150.963 135.371 151.631L130.282 160.461C130.104 160.77 130.104 161.15 130.282 161.46L150.784 197.036C151.169 197.702 150.688 198.535 149.918 198.535H122.516C122.159 198.535 121.828 198.344 121.65 198.034Z" fill="white"/>
<path d="M108.121 198.535H101.078C100.308 198.535 99.8273 197.702 100.211 197.035L115.349 170.769C115.733 170.101 116.697 170.101 117.081 170.769L120.603 176.88C120.781 177.189 120.781 177.569 120.603 177.878L108.987 198.034C108.809 198.344 108.478 198.535 108.121 198.535Z" fill="black"/>
<path d="M108.121 198.535H101.078C100.308 198.535 99.8273 197.702 100.211 197.035L115.349 170.769C115.733 170.101 116.697 170.101 117.081 170.769L120.603 176.88C120.781 177.189 120.781 177.569 120.603 177.878L108.987 198.034C108.809 198.344 108.478 198.535 108.121 198.535Z" fill="white"/>
<path d="M164.418 198.401H171.461C172.231 198.401 172.712 197.568 172.328 196.902L157.191 170.635C156.806 169.968 155.842 169.968 155.458 170.635L151.936 176.746C151.758 177.055 151.758 177.436 151.936 177.745L163.552 197.9C163.73 198.21 164.061 198.401 164.418 198.401Z" fill="black"/>
<path d="M164.418 198.401H171.461C172.231 198.401 172.712 197.568 172.328 196.902L157.191 170.635C156.806 169.968 155.842 169.968 155.458 170.635L151.936 176.746C151.758 177.055 151.758 177.436 151.936 177.745L163.552 197.9C163.73 198.21 164.061 198.401 164.418 198.401Z" fill="white"/>
<path d="M206.04 157.6H216.03L211.17 143.452H211.062L206.04 157.6ZM206.85 133.948H215.544L229.962 172.504H221.16L218.244 163.918H203.826L200.802 172.504H192.27L206.85 133.948Z" fill="white"/>
<path d="M245.749 157.492L231.601 133.948H241.105L250.123 149.176L259.087 133.948H268.537L254.227 157.708V172.504H245.749V157.492Z" fill="white"/>
<path d="M278.256 133.948H286.68L302.772 159.814H302.88V133.948H310.818V172.504H302.34L286.302 146.692H286.194V172.504H278.256V133.948Z" fill="white"/>
<path d="M324.761 133.948H333.239V172.504H324.761V133.948Z" fill="white"/>
<path d="M375.031 168.13C373.519 170.074 371.845 171.442 370.009 172.234C368.173 172.99 366.319 173.368 364.447 173.368C361.495 173.368 358.831 172.864 356.455 171.856C354.115 170.812 352.135 169.39 350.515 167.59C348.895 165.79 347.653 163.684 346.789 161.272C345.925 158.824 345.493 156.196 345.493 153.388C345.493 150.508 345.925 147.844 346.789 145.396C347.653 142.912 348.895 140.752 350.515 138.916C352.135 137.08 354.115 135.64 356.455 134.596C358.831 133.552 361.495 133.03 364.447 133.03C366.427 133.03 368.335 133.336 370.171 133.948C372.043 134.524 373.717 135.388 375.193 136.54C376.705 137.692 377.947 139.114 378.919 140.806C379.891 142.498 380.485 144.442 380.701 146.638H372.601C372.097 144.478 371.125 142.858 369.685 141.778C368.245 140.698 366.499 140.158 364.447 140.158C362.539 140.158 360.919 140.536 359.587 141.292C358.255 142.012 357.175 143.002 356.347 144.262C355.519 145.486 354.907 146.89 354.511 148.474C354.151 150.058 353.971 151.696 353.971 153.388C353.971 155.008 354.151 156.592 354.511 158.14C354.907 159.652 355.519 161.02 356.347 162.244C357.175 163.468 358.255 164.458 359.587 165.214C360.919 165.934 362.539 166.294 364.447 166.294C367.255 166.294 369.415 165.592 370.927 164.188C372.475 162.748 373.375 160.678 373.627 157.978H365.095V151.66H381.295V172.504H375.895L375.031 168.13Z" fill="white"/>
<path d="M394.622 133.948H406.556L415.574 160.462H415.682L424.214 133.948H436.148V172.504H428.21V145.18H428.102L418.652 172.504H412.118L402.668 145.45H402.56V172.504H394.622V133.948Z" fill="white"/>
<path d="M459.812 157.6H469.802L464.942 143.452H464.834L459.812 157.6ZM460.622 133.948H469.316L483.734 172.504H474.932L472.016 163.918H457.598L454.574 172.504H446.042L460.622 133.948Z" fill="white"/>
<path d="M194.77 195.548C194.836 195.921 194.983 196.248 195.21 196.528C195.436 196.808 195.73 197.028 196.09 197.188C196.463 197.335 196.896 197.408 197.39 197.408C198.163 197.408 198.743 197.235 199.13 196.888C199.516 196.528 199.71 196.095 199.71 195.588C199.71 195.188 199.59 194.855 199.35 194.588C199.11 194.321 198.77 194.095 198.33 193.908C197.903 193.721 197.403 193.541 196.83 193.368C196.296 193.208 195.77 193.035 195.25 192.848C194.73 192.661 194.256 192.428 193.83 192.148C193.403 191.868 193.063 191.508 192.81 191.068C192.57 190.615 192.45 190.048 192.45 189.368C192.45 188.515 192.656 187.788 193.07 187.188C193.496 186.588 194.076 186.135 194.81 185.828C195.543 185.521 196.39 185.368 197.35 185.368C198.163 185.368 198.896 185.488 199.55 185.728C200.203 185.955 200.75 186.295 201.19 186.748C201.643 187.188 201.976 187.735 202.19 188.388L199.69 189.068C199.623 188.775 199.476 188.521 199.25 188.308C199.023 188.095 198.75 187.928 198.43 187.808C198.11 187.675 197.763 187.608 197.39 187.608C196.99 187.595 196.623 187.655 196.29 187.788C195.956 187.921 195.69 188.115 195.49 188.368C195.29 188.621 195.19 188.915 195.19 189.248C195.19 189.621 195.303 189.921 195.53 190.148C195.756 190.361 196.056 190.548 196.43 190.708C196.803 190.855 197.223 191.001 197.69 191.148C198.25 191.308 198.81 191.495 199.37 191.708C199.93 191.908 200.443 192.168 200.91 192.488C201.376 192.795 201.75 193.188 202.03 193.668C202.323 194.148 202.47 194.755 202.47 195.488C202.47 196.261 202.283 196.961 201.91 197.588C201.55 198.215 201.003 198.715 200.27 199.088C199.536 199.461 198.616 199.648 197.51 199.648C196.603 199.648 195.776 199.515 195.03 199.248C194.296 198.981 193.69 198.595 193.21 198.088C192.73 197.568 192.416 196.955 192.27 196.248L194.77 195.548Z" fill="white"/>
<path d="M241.685 187.768H234.545V191.328H239.885V193.508H234.545V197.248H241.685V199.508H231.845V185.508H241.685V187.768Z" fill="white"/>
<path d="M270.533 192.508C270.533 191.455 270.713 190.495 271.073 189.628C271.433 188.748 271.933 187.995 272.573 187.368C273.213 186.728 273.96 186.235 274.813 185.888C275.68 185.541 276.613 185.368 277.613 185.368C279.053 185.368 280.327 185.715 281.433 186.408C282.553 187.088 283.393 188.068 283.953 189.348L281.693 190.008C281.4 189.448 281.033 188.995 280.593 188.648C280.167 188.301 279.7 188.048 279.193 187.888C278.687 187.728 278.173 187.648 277.653 187.648C276.8 187.648 276.04 187.855 275.373 188.268C274.707 188.668 274.187 189.235 273.813 189.968C273.453 190.701 273.273 191.548 273.273 192.508C273.273 193.468 273.453 194.315 273.813 195.048C274.187 195.768 274.707 196.335 275.373 196.748C276.04 197.161 276.8 197.368 277.653 197.368C278.187 197.368 278.713 197.288 279.233 197.128C279.767 196.955 280.26 196.668 280.713 196.268C281.167 195.868 281.553 195.335 281.873 194.668L284.093 195.288C283.52 196.741 282.667 197.835 281.533 198.568C280.4 199.288 279.093 199.648 277.613 199.648C276.613 199.648 275.68 199.475 274.813 199.128C273.96 198.781 273.213 198.288 272.573 197.648C271.933 197.008 271.433 196.255 271.073 195.388C270.713 194.508 270.533 193.548 270.533 192.508Z" fill="white"/>
<path d="M313.47 185.508H316.17V194.348C316.17 195.001 316.303 195.555 316.57 196.008C316.837 196.448 317.197 196.781 317.65 197.008C318.117 197.235 318.65 197.348 319.25 197.348C319.863 197.348 320.404 197.235 320.87 197.008C321.337 196.781 321.704 196.448 321.97 196.008C322.237 195.555 322.37 195.001 322.37 194.348V185.508H325.07V194.208C325.07 195.128 324.91 195.928 324.59 196.608C324.27 197.288 323.83 197.855 323.27 198.308C322.723 198.761 322.097 199.101 321.39 199.328C320.697 199.541 319.97 199.648 319.21 199.648C318.197 199.648 317.25 199.448 316.37 199.048C315.503 198.648 314.803 198.048 314.27 197.248C313.737 196.448 313.47 195.435 313.47 194.208V185.508Z" fill="white"/>
<path d="M362.95 189.828C362.95 189.201 362.757 188.701 362.37 188.328C361.997 187.955 361.41 187.768 360.61 187.768H357.63V191.908H360.61C361.143 191.908 361.583 191.828 361.93 191.668C362.277 191.495 362.53 191.255 362.69 190.948C362.863 190.628 362.95 190.255 362.95 189.828ZM360.69 185.508C361.823 185.508 362.757 185.708 363.49 186.108C364.237 186.495 364.79 187.021 365.15 187.688C365.523 188.341 365.71 189.055 365.71 189.828C365.71 190.348 365.617 190.868 365.43 191.388C365.243 191.895 364.95 192.361 364.55 192.788C364.15 193.201 363.63 193.535 362.99 193.788C362.363 194.041 361.597 194.168 360.69 194.168H357.63V199.508H354.93V185.508H360.69ZM362.21 193.268L365.99 199.508H362.97L359.35 193.268H362.21Z" fill="white"/>
<path d="M395.255 185.508H397.955V199.508H395.255V185.508Z" fill="white"/>
<path d="M427.205 185.508H438.565V187.768H434.245V199.508H431.545V187.768H427.205V185.508Z" fill="white"/>
<path d="M477.02 185.508H480.06L474.82 194.588V199.508H472.12V194.608L466.88 185.508H469.9L473.46 192.008L477.02 185.508Z" fill="white"/>
</svg>
